<svg width="16" height="16" viewBox="0 0 16 16" fill="none" xmlns="http://www.w3.org/2000/svg">
<path d="M7.3 11.0119C7.4 11.106 7.5 11.2001 7.6 11.2001C7.7 11.2942 7.9 11.2942 8 11.2942C8.1 11.2942 8.3 11.2942 8.4 11.2001C8.5 11.106 8.6 11.106 8.7 11.0119L12.7 7.24712C13.1 6.87065 13.1 6.30594 12.7 5.92947C12.3 5.55299 11.7 5.55299 11.3 5.92947L9 8.09419V0.941185C9 0.376474 8.6 0 8 0C7.4 0 7 0.376474 7 0.941185V8.09419L4.7 5.92947C4.3 5.55299 3.7 5.55299 3.3 5.92947C2.9 6.30594 2.9 6.87065 3.3 7.24712L7.3 11.0119Z" fill="white"/>
<path d="M15 9.41168C14.4 9.41168 14 9.78816 14 10.3529V12.2352C14 13.2705 13.1 14.1176 12 14.1176H4C2.9 14.1176 2 13.2705 2 12.2352V10.3529C2 9.78816 1.6 9.41168 1 9.41168C0.4 9.41168 0 9.78816 0 10.3529V12.2352C0 14.3058 1.8 16 4 16H12C14.2 16 16 14.3058 16 12.2352V10.3529C16 9.78816 15.6 9.41168 15 9.41168Z" fill="white"/>
</svg>
