<svg width="15" height="9" viewBox="0 0 15 9" fill="none" xmlns="http://www.w3.org/2000/svg">
<path d="M7.26138 8.41461L7.2605 8.41358L0.511365 0.615743C0.511223 0.615577 0.511083 0.615413 0.510944 0.615249C0.505539 0.608878 0.50262 0.604034 0.501141 0.601153C0.501815 0.599839 0.502769 0.598159 0.504098 0.596129C0.512212 0.583742 0.534119 0.559338 0.579816 0.537119C0.625247 0.51503 0.684224 0.500315 0.749439 0.500001L14.2495 0.500001L14.2501 0.5C14.3156 0.499918 14.3749 0.514459 14.4206 0.536527C14.4664 0.55865 14.4882 0.583 14.4962 0.595167C14.4972 0.596808 14.4981 0.598207 14.4987 0.599357C14.4971 0.60235 14.494 0.607187 14.4886 0.613458L14.488 0.61412L7.73747 8.41358L7.73658 8.41461C7.72334 8.43 7.69713 8.45197 7.65347 8.47033C7.60995 8.48862 7.55658 8.5 7.49898 8.5C7.44138 8.5 7.38802 8.48862 7.3445 8.47033C7.30084 8.45198 7.27463 8.43 7.26138 8.41461Z" fill="#788AFE" stroke="#788AFE"/>
</svg>
