<svg width="18" height="18" viewBox="0 0 18 18" fill="none" xmlns="http://www.w3.org/2000/svg">
<path d="M3.99787 15.8835C4.48817 16.2602 5.21778 16.5236 6.26125 16.4112C6.26276 16.6141 6.26435 16.8031 6.26573 16.9681C6.26768 17.1997 6.26923 17.3843 6.26961 17.4948C2.92045 16.3296 0.5 13.0734 0.5 9.2278C0.5 4.39556 4.31792 0.5 9.00002 0.5C13.6826 0.5 17.5 4.39554 17.5 9.2278C17.5 13.0734 15.0812 16.3292 11.7323 17.4947C11.7325 17.3917 11.7335 17.2346 11.7348 17.0325C11.7356 16.9122 11.7365 16.7761 11.7374 16.6259C11.7399 16.1846 11.7425 15.6264 11.7425 15.0077C11.7425 14.4849 11.6478 14.0369 11.4893 13.672C12.2869 13.5109 13.0975 13.2173 13.7641 12.6452C14.6792 11.86 15.2417 10.6233 15.2417 8.7458C15.2417 7.72509 14.9202 6.86041 14.3764 6.16129C14.5072 5.67721 14.6269 4.77105 14.1937 3.64701L14.1085 3.42575L13.8832 3.35177L13.7272 3.8268C13.8832 3.35177 13.8827 3.35161 13.8822 3.35145L13.8812 3.35112L13.8791 3.35046L13.8748 3.34909L13.8652 3.3462C13.8584 3.34421 13.8508 3.34211 13.8424 3.33996C13.8256 3.33566 13.8057 3.33114 13.7825 3.32685C13.7361 3.31826 13.6773 3.31064 13.6059 3.30728C13.4626 3.30055 13.2711 3.31112 13.0294 3.36341C12.5821 3.46016 11.9667 3.69876 11.1632 4.23063C10.4643 4.05374 9.72958 3.96563 9.00239 3.96223L8.99774 3.96225C8.27063 3.96563 7.53643 4.05372 6.83845 4.2306C6.03403 3.69867 5.41791 3.46011 4.97024 3.36338C4.7283 3.31111 4.5367 3.30056 4.39333 3.30728C4.32182 3.31063 4.26301 3.31825 4.21664 3.32683C4.19349 3.33112 4.17354 3.33562 4.15674 3.33992C4.14835 3.34207 4.14076 3.34416 4.13396 3.34614L4.12437 3.34903L4.12002 3.35039L4.11796 3.35105L4.11696 3.35138C4.11647 3.35154 4.11598 3.3517 4.27179 3.8268L4.11598 3.3517L3.89032 3.42571L3.80509 3.64737C3.37289 4.77149 3.49291 5.67763 3.62372 6.16157C3.0812 6.85998 2.75719 7.72439 2.75719 8.7458C2.75719 10.6192 3.31883 11.8558 4.23117 12.643C4.89739 13.2179 5.7079 13.5146 6.50537 13.6778C6.43961 13.8305 6.38508 13.9976 6.344 14.1782C6.13875 14.247 5.88577 14.2995 5.63079 14.2762C5.30371 14.2463 4.92361 14.0895 4.60368 13.5292L4.60344 13.5287L4.59614 13.5157C4.59028 13.5054 4.5824 13.4919 4.57251 13.4756C4.55277 13.4431 4.52482 13.3992 4.48867 13.3474C4.41686 13.2446 4.31013 13.1074 4.16813 12.9668C3.8881 12.6895 3.43745 12.3676 2.82359 12.3234L2.80901 12.3224L2.79439 12.3222L2.78767 12.8221C2.79439 12.3222 2.79423 12.3222 2.79407 12.3222L2.79372 12.3222L2.79297 12.3222L2.7912 12.3221L2.78666 12.3221L2.77373 12.3222C2.76349 12.3222 2.74995 12.3225 2.73379 12.3231C2.70194 12.3242 2.65765 12.3267 2.6072 12.3324C2.52631 12.3415 2.35279 12.3659 2.19839 12.4561C2.11513 12.5048 1.99493 12.5973 1.92649 12.7585C1.85225 12.9333 1.87286 13.1073 1.92846 13.2432C2.02045 13.4679 2.22935 13.6454 2.43902 13.7924L2.47252 13.8159L2.50097 13.8296C2.50613 13.8326 2.5188 13.8403 2.5376 13.8534C2.57513 13.8798 2.6375 13.9284 2.71376 14.0068C2.86417 14.1615 3.07555 14.439 3.25538 14.9042C3.25766 14.9107 3.26048 14.9185 3.26386 14.9275C3.27137 14.9475 3.28172 14.9735 3.29531 15.0044C3.32243 15.066 3.36281 15.148 3.41991 15.2418C3.53392 15.4292 3.71716 15.6678 3.99787 15.8835Z" fill="#788AFE" stroke="#788AFE"/>
<path d="M3.40877 13.2488C3.38897 13.2948 3.31854 13.3085 3.25448 13.277C3.18915 13.2469 3.15262 13.1844 3.1737 13.1384C3.19307 13.0912 3.26348 13.0781 3.32871 13.1096C3.39408 13.1397 3.43135 13.2028 3.40877 13.2488Z" fill="#788BFF"/>
<path d="M3.77338 13.6662C3.73048 13.7068 3.64644 13.6879 3.58951 13.6235C3.53057 13.5591 3.51968 13.473 3.56324 13.4317C3.60749 13.391 3.68887 13.41 3.74777 13.4744C3.80675 13.5395 3.81821 13.6248 3.77338 13.6662Z" fill="#788BFF"/>
<path d="M4.12825 14.1973C4.07308 14.2366 3.98284 14.1997 3.92708 14.1177C3.8719 14.0356 3.87192 13.9372 3.92837 13.8977C3.98414 13.8583 4.07309 13.8938 4.12955 13.9752C4.18458 14.0586 4.18456 14.1571 4.12825 14.1973Z" fill="#788BFF"/>
<path d="M4.61435 14.711C4.56498 14.7667 4.45988 14.7517 4.38307 14.6756C4.30432 14.6012 4.28248 14.4956 4.33181 14.4398C4.38191 14.384 4.48757 14.3996 4.56497 14.4752C4.64313 14.5494 4.66686 14.6557 4.61435 14.711Z" fill="#788BFF"/>
<path d="M5.28501 15.009C5.26319 15.0812 5.16206 15.114 5.06015 15.0833C4.95827 15.0516 4.89178 14.967 4.91228 14.894C4.93337 14.8212 5.03507 14.7871 5.13767 14.8199C5.23944 14.8514 5.30609 14.9354 5.28501 15.009Z" fill="#788BFF"/>
<path d="M6.02163 15.0643C6.02408 15.1404 5.93763 15.2036 5.83067 15.2049C5.7231 15.2074 5.6359 15.1459 5.63477 15.0709C5.63477 14.994 5.71927 14.9317 5.82688 14.9297C5.93384 14.9276 6.02163 14.9888 6.02163 15.0643Z" fill="#788BFF"/>
<path d="M6.70698 14.9448C6.71977 15.0189 6.64535 15.0952 6.53909 15.1155C6.43462 15.1352 6.338 15.0892 6.32462 15.0156C6.31169 14.9396 6.38732 14.8633 6.49171 14.8436C6.59812 14.8246 6.69342 14.8692 6.70698 14.9448Z" fill="#788BFF"/>
</svg>
