<svg width="24" height="26" viewBox="0 0 24 26" fill="none" xmlns="http://www.w3.org/2000/svg">
<path d="M13.9207 15.6324C13.5045 15.6064 13.0755 15.5869 12.6401 15.5804V12.3824C13.0819 12.3369 13.5109 12.2394 13.9207 12.1029C20.4106 9.81156 18.9663 0.136135 11.9998 0C5.03189 0.140659 3.58839 9.80722 10.0792 12.1029C10.4889 12.2394 10.9178 12.3369 11.3596 12.3824C11.3596 13.2973 11.3596 20.7868 11.3596 20.7868C11.3749 21.6378 12.6238 21.643 12.6401 20.7868V16.8803C17.4289 16.8508 22.913 18.834 22.7434 20.7869C22.7435 22.6393 18.3321 24.6998 11.9999 24.6998C5.66767 24.6998 1.25624 22.6393 1.25624 20.7868C1.25624 19.1293 4.79051 17.3029 10.0791 16.9389V15.6324C-4.81398 16.7992 -2.38486 26.0631 12 25.9997C26.3846 26.0625 28.8143 16.7998 13.9207 15.6324Z" fill="#788AFE"/>
</svg>
